<svg width="40" height="40" viewBox="0 0 40 40" fill="none" xmlns="http://www.w3.org/2000/svg">
<g clip-path="url(#clip0_886_1813)">
<path d="M30 0H10C4.47715 0 0 4.47715 0 10V30C0 35.5228 4.47715 40 10 40H30C35.5228 40 40 35.5228 40 30V10C40 4.47715 35.5228 0 30 0Z" fill="#FEEB61"/>
<path d="M24.2891 26.0297C23.8255 26.0297 23.4141 26.1208 23.0547 26.3031C22.7005 26.4802 22.401 26.738 22.1562 27.0766C21.9167 27.4151 21.7344 27.824 21.6094 28.3031C21.4844 28.7823 21.4219 29.3214 21.4219 29.9203C21.4219 30.7276 21.5208 31.4177 21.7188 31.9906C21.9219 32.5583 22.2344 32.9932 22.6562 33.2953C23.0781 33.5922 23.6224 33.7406 24.2891 33.7406C24.7526 33.7406 25.2162 33.6886 25.6797 33.5844C26.1484 33.4802 26.6562 33.3318 27.2031 33.1391V35.1703C26.6979 35.3786 26.2005 35.5271 25.7109 35.6156C25.2214 35.7094 24.6719 35.7562 24.0625 35.7562C22.8854 35.7562 21.9167 35.5141 21.1562 35.0297C20.401 34.5401 19.8412 33.8578 19.4766 32.9828C19.112 32.1026 18.9297 31.0766 18.9297 29.9047C18.9297 29.0401 19.0469 28.2484 19.2812 27.5297C19.5156 26.8109 19.8594 26.1886 20.3125 25.6625C20.7656 25.1364 21.3255 24.7302 21.9922 24.4438C22.6588 24.1573 23.4245 24.0141 24.2891 24.0141C24.8568 24.0141 25.4245 24.087 25.9922 24.2328C26.5651 24.3734 27.112 24.5688 27.6328 24.8188L26.8516 26.7875C26.4245 26.5844 25.9948 26.4073 25.5625 26.2562C25.1302 26.1052 24.7057 26.0297 24.2891 26.0297ZM34.0469 35.6H31.625V26.1938H28.5234V24.1781H37.1484V26.1938H34.0469V35.6Z" fill="black"/>
</g>
<defs>
<clipPath id="clip0_886_1813">
<rect width="40" height="40" fill="white"/>
</clipPath>
</defs>
</svg>
